<?xml version="1.0" encoding="UTF-8"?>
<svg width="14px" height="14px" viewBox="0 0 14 14" version="1.1" xmlns="http://www.w3.org/2000/svg" xmlns:xlink="http://www.w3.org/1999/xlink">
    <!-- Generator: Sketch 48.1 (47250) - http://www.bohemiancoding.com/sketch -->
    <title>Group 10</title>
    <desc>Created with Sketch.</desc>
    <defs></defs>
    <g id="拓扑界面" stroke="none" stroke-width="1" fill="none" fill-rule="evenodd" transform="translate(-75.000000, -295.000000)">
        <g id="树的sprite_文件-copy-5" transform="translate(75.000000, 295.000000)" fill="#5CB9FF" fill-rule="nonzero">
            <g id="Group-10" transform="translate(2.000000, 1.000000)">
                <path d="M7,0 L0,0 L0,6 L0,11 L4,11 L10,11 L10,6 L10,4 L10,3 L7,0 Z M9,6 L9,10 L4,10 L1,10 L1,6 L1,1 L6,1 L6,4 L9,4 L9,6 Z M7,3 L7,1.08944276 L9,3 L7,3 Z" id="Shape"></path>
                <rect id="Rectangle-path" x="2" y="4" width="2" height="1"></rect>
                <rect id="Rectangle-path" x="2" y="6" width="3" height="1"></rect>
                <rect id="Rectangle-path" x="2" y="8" width="4" height="1"></rect>
            </g>
        </g>
    </g>
</svg>